<svg xmlns="http://www.w3.org/2000/svg" xmlns:xlink="http://www.w3.org/1999/xlink" width="500" zoomAndPan="magnify" viewBox="0 0 375 374.999991" height="500" preserveAspectRatio="xMidYMid meet" version="1.0"><rect x="-37.5" width="450" fill="#ffffff" y="-37.499999" height="449.999989" fill-opacity="1"/><rect x="-37.5" width="450" fill="#ffffff" y="-37.499999" height="449.999989" fill-opacity="1"/><path fill="#004aad" d="M 151.660156 85.597656 L 236.472656 28.808594 C 238.722656 27.285156 241.605469 27.398438 243.691406 28.871094 L 328.390625 85.597656 L 346.625 85.597656 L 240.042969 14.203125 L 133.425781 85.597656 Z M 151.660156 85.597656 " fill-opacity="1" fill-rule="evenodd"/><path fill="#004aad" d="M 216.851562 239.609375 L 263.222656 239.609375 L 263.222656 259.800781 L 216.851562 259.800781 Z M 216.851562 239.609375 " fill-opacity="1" fill-rule="evenodd"/><path fill="#004aad" d="M 216.851562 122.570312 L 263.222656 122.570312 L 263.222656 142.757812 L 216.851562 142.757812 Z M 216.851562 122.570312 " fill-opacity="1" fill-rule="evenodd"/><path fill="#004aad" d="M 124.339844 122.570312 L 170.707031 122.570312 L 170.707031 142.757812 L 124.339844 142.757812 Z M 124.339844 122.570312 " fill-opacity="1" fill-rule="evenodd"/><path fill="#004aad" d="M 309.347656 239.609375 L 355.71875 239.609375 L 355.71875 259.800781 L 309.347656 259.800781 Z M 309.347656 239.609375 " fill-opacity="1" fill-rule="evenodd"/><path fill="#004aad" d="M 309.347656 122.570312 L 355.71875 122.570312 L 355.71875 142.757812 L 309.347656 142.757812 Z M 309.347656 122.570312 " fill-opacity="1" fill-rule="evenodd"/><path fill="#004aad" d="M 69.730469 213.199219 C 126.070312 202.6875 157.953125 215.242188 183.910156 263.339844 C 183.453125 208.65625 122.480469 162.054688 58.699219 173.910156 L 56.566406 159.789062 L 8.058594 212.222656 L 71.050781 225.167969 Z M 69.730469 213.199219 " fill-opacity="1" fill-rule="evenodd"/><path fill="#004aad" d="M 161.585938 313.457031 C 105.265625 323.992188 73.382812 311.4375 47.402344 263.339844 C 47.996094 319.226562 108.832031 364.601562 172.640625 352.742188 L 174.753906 366.867188 L 223.261719 314.457031 L 160.269531 301.511719 Z M 161.585938 313.457031 " fill-opacity="1" fill-rule="evenodd"/><path fill="#004aad" d="M 217.0625 356.695312 C 213.542969 356.695312 210.660156 353.808594 210.660156 350.292969 C 210.660156 346.75 213.542969 343.867188 217.0625 343.867188 L 332.855469 343.867188 C 336.394531 343.867188 339.253906 346.75 339.253906 350.292969 C 339.253906 353.808594 336.394531 356.695312 332.855469 356.695312 Z M 351.152344 356.695312 C 347.609375 356.695312 344.75 353.808594 344.75 350.292969 C 344.75 346.75 347.609375 343.867188 351.152344 343.867188 L 368.542969 343.867188 C 372.082031 343.867188 374.945312 346.75 374.945312 350.292969 C 374.945312 353.808594 372.082031 356.695312 368.542969 356.695312 Z M 247.078125 323.558594 C 243.539062 323.558594 240.675781 320.675781 240.675781 317.160156 C 240.675781 313.617188 243.539062 310.734375 247.078125 310.734375 L 263.492188 310.734375 C 267.035156 310.734375 269.894531 313.617188 269.894531 317.160156 C 269.894531 320.675781 267.035156 323.558594 263.492188 323.558594 Z M 283.367188 323.558594 C 279.851562 323.558594 276.96875 320.675781 276.96875 317.160156 C 276.96875 313.617188 279.851562 310.734375 283.367188 310.734375 L 368.550781 310.734375 C 372.09375 310.734375 374.953125 313.617188 374.953125 317.160156 C 374.953125 320.675781 372.09375 323.558594 368.550781 323.558594 Z M 162.585938 319.769531 C 133.25 325.242188 110.082031 324.609375 90.621094 316.253906 C 79.765625 311.597656 70.210938 304.628906 61.507812 295.0625 C 77.8125 328.238281 115.488281 348.660156 153.226562 348.25 C 159.222656 348.1875 165.332031 347.617188 171.484375 346.457031 C 175.003906 345.824219 178.34375 348.160156 178.960938 351.789062 L 178.984375 351.789062 L 179.121094 352.769531 L 210.917969 318.433594 L 167.585938 309.53125 L 167.945312 312.777344 C 168.304688 316.179688 165.917969 319.25 162.585938 319.769531 Z M 95.613281 304.484375 C 99.90625 306.328125 104.449219 307.730469 109.261719 308.730469 L 109.261719 302.851562 C 97.503906 300.734375 86.625 292.316406 86.625 280.164062 C 86.625 276.621094 89.507812 273.761719 93.050781 273.761719 C 96.589844 273.761719 99.449219 276.621094 99.449219 280.164062 C 99.449219 289.222656 117.523438 294.632812 127.832031 286.957031 C 130.332031 285.097656 131.878906 282.6875 131.878906 280.164062 C 131.878906 272.6875 123.203125 271.167969 114.550781 269.628906 C 100.585938 267.152344 86.617188 264.679688 86.617188 246.484375 C 86.617188 234.332031 97.496094 225.910156 109.253906 223.796875 C 109.253906 221.753906 109.03125 217.957031 109.601562 216.324219 C 99.785156 215.707031 88.914062 216.484375 76.738281 218.453125 L 77.394531 224.445312 C 77.875 228.691406 74.03125 232.28125 69.769531 231.390625 L 63.457031 230.09375 C 60.707031 234.410156 58.457031 239.105469 56.847656 244.058594 C 55.027344 249.625 53.988281 255.546875 53.828125 261.722656 C 65.890625 283.617188 79.148438 297.425781 95.613281 304.484375 Z M 121.703125 310.324219 C 131.535156 310.941406 142.414062 310.164062 154.566406 308.195312 L 153.910156 302.179688 C 153.476562 297.957031 157.289062 294.367188 161.535156 295.25 L 167.847656 296.546875 C 170.597656 292.253906 172.863281 287.4375 174.457031 282.582031 C 176.277344 277.023438 177.34375 271.09375 177.476562 264.917969 C 165.421875 243.023438 152.179688 229.246094 135.691406 222.179688 C 131.398438 220.320312 126.855469 218.933594 122.042969 217.933594 L 122.066406 223.8125 C 133.808594 225.929688 144.679688 234.347656 144.679688 246.5 C 144.679688 250.015625 141.820312 252.902344 138.28125 252.902344 C 134.738281 252.902344 131.878906 250.015625 131.878906 246.5 C 131.878906 237.417969 113.78125 232.03125 103.472656 239.707031 C 100.996094 241.566406 99.449219 243.976562 99.449219 246.5 C 99.449219 253.949219 108.101562 255.496094 116.753906 257.035156 C 130.71875 259.511719 144.6875 261.984375 144.6875 280.179688 C 144.6875 292.332031 133.808594 300.75 122.074219 302.867188 C 122.074219 304.871094 122.296875 308.667969 121.703125 310.324219 Z M 181.113281 299.261719 L 224.550781 308.1875 L 224.527344 308.1875 C 229.34375 309.164062 231.335938 315.117188 227.933594 318.769531 L 179.832031 370.769531 C 175.996094 375.335938 169.226562 373.21875 168.433594 367.8125 L 167.257812 360.050781 C 135.941406 364.070312 104.898438 355.371094 81.054688 337.476562 C 59.160156 321.058594 43.910156 297.074219 41.363281 270.511719 C 39.910156 255.359375 42.996094 240.507812 50.222656 227.386719 L 6.777344 218.460938 L 6.777344 218.4375 C 1.960938 217.460938 -0.03125 211.53125 3.371094 207.878906 L 51.472656 155.878906 C 55.332031 151.3125 62.078125 153.425781 62.894531 158.828125 L 64.074219 166.589844 C 85.984375 163.792969 107.902344 167.34375 127.433594 176.082031 L 127.433594 149.148438 L 124.347656 149.148438 C 120.808594 149.148438 117.949219 146.289062 117.949219 142.75 L 117.949219 128.960938 L 111.523438 128.960938 C 107.980469 128.960938 105.121094 126.101562 105.121094 122.5625 L 105.121094 92 C 105.121094 88.890625 107.347656 86.277344 110.296875 85.710938 L 236.480469 1.207031 C 238.730469 -0.289062 241.613281 -0.175781 243.699219 1.273438 L 369.777344 85.703125 C 372.734375 86.269531 374.953125 88.882812 374.953125 91.992188 L 374.953125 122.554688 C 374.953125 126.09375 372.09375 128.953125 368.550781 128.953125 L 362.125 128.953125 L 362.125 142.742188 C 362.125 146.28125 359.265625 149.140625 355.726562 149.140625 L 352.640625 149.140625 L 352.640625 233.203125 L 355.726562 233.203125 C 359.265625 233.203125 362.125 236.0625 362.125 239.601562 L 362.125 253.390625 L 368.550781 253.390625 C 372.09375 253.390625 374.953125 256.25 374.953125 259.792969 L 374.953125 290.351562 C 374.953125 293.894531 372.09375 296.753906 368.550781 296.753906 L 182.40625 296.753906 C 181.996094 297.601562 181.5625 298.445312 181.113281 299.261719 Z M 68.800781 206.863281 C 98.121094 201.414062 121.257812 202.046875 140.714844 210.378906 C 151.386719 214.96875 160.816406 221.800781 169.371094 231.109375 C 163.121094 218.871094 153.652344 208.175781 142.621094 199.84375 C 119.367188 182.265625 89.261719 174.753906 59.851562 180.175781 C 56.335938 180.832031 52.96875 178.496094 52.375 174.839844 L 52.351562 174.867188 L 52.214844 173.886719 L 20.429688 208.222656 L 63.738281 217.125 L 63.375 213.894531 C 63.007812 210.449219 65.410156 207.359375 68.800781 206.863281 Z M 140.234375 182.789062 C 145.386719 185.898438 150.222656 189.347656 154.789062 193.164062 L 154.789062 149.148438 L 140.234375 149.148438 Z M 167.625 205.820312 C 179.222656 219.351562 187.355469 235.972656 189.65625 253.398438 L 210.4375 253.398438 L 210.4375 239.609375 C 210.4375 236.070312 213.320312 233.210938 216.859375 233.210938 L 219.945312 233.210938 L 219.945312 149.15625 L 216.859375 149.15625 C 213.320312 149.15625 210.4375 146.296875 210.4375 142.757812 L 210.4375 128.96875 L 177.125 128.96875 L 177.125 142.757812 C 177.125 146.296875 174.265625 149.15625 170.726562 149.15625 L 167.640625 149.15625 L 167.640625 205.820312 Z M 190.265625 266.199219 C 190.039062 272.328125 189.0625 278.257812 187.429688 283.960938 L 362.148438 283.960938 L 362.148438 266.199219 Z M 339.824219 233.203125 L 339.824219 149.15625 L 325.265625 149.15625 L 325.265625 233.203125 Z M 312.433594 233.203125 L 312.433594 149.15625 L 309.347656 149.15625 C 305.808594 149.15625 302.949219 146.296875 302.949219 142.757812 L 302.949219 128.96875 L 269.636719 128.96875 L 269.636719 142.757812 C 269.636719 146.296875 266.753906 149.15625 263.238281 149.15625 L 260.152344 149.15625 L 260.152344 233.203125 L 263.238281 233.203125 C 266.753906 233.203125 269.636719 236.0625 269.636719 239.601562 L 269.636719 253.390625 L 302.949219 253.390625 L 302.949219 239.609375 C 302.949219 236.070312 305.808594 233.210938 309.347656 233.210938 L 312.433594 233.210938 Z M 315.75 128.96875 L 315.75 136.347656 L 349.316406 136.347656 L 349.316406 128.96875 Z M 349.316406 253.390625 L 349.316406 246.011719 L 315.75 246.011719 L 315.75 253.390625 Z M 130.742188 128.96875 L 130.742188 136.347656 L 164.308594 136.347656 L 164.308594 128.96875 Z M 232.753906 149.15625 L 232.753906 233.203125 L 247.3125 233.203125 L 247.3125 149.15625 Z M 223.261719 128.96875 L 223.261719 136.347656 L 256.804688 136.347656 L 256.804688 128.96875 Z M 256.804688 253.390625 L 256.804688 246.011719 L 223.261719 246.011719 L 223.261719 253.390625 Z M 151.660156 85.597656 L 236.472656 28.808594 C 238.722656 27.285156 241.605469 27.398438 243.691406 28.871094 L 328.390625 85.597656 L 346.625 85.597656 L 240.042969 14.203125 L 133.425781 85.597656 Z M 305.441406 85.597656 L 240.035156 41.792969 L 174.609375 85.597656 Z M 362.140625 98.40625 L 117.914062 98.40625 L 117.914062 116.167969 L 362.148438 116.167969 L 362.148438 98.40625 Z M 362.140625 98.40625 " fill-opacity="1" fill-rule="nonzero"/></svg>